<svg xmlns="http://www.w3.org/2000/svg" viewBox="0 0 180 180"><defs><style>.cls-1{fill:none;}.cls-2,.cls-4{fill:#f18b23;}.cls-3{fill:#fff;}.cls-4{font-size:39.11px;font-family:AdobeMingStd-Light-B5pc-H, Adobe Ming Std;letter-spacing:0.1em;}</style></defs><g id="圖層_1" data-name="圖層 1"><path class="cls-1" d="M104.89,66.8l-.57.19.54.36C104.87,67.14,104.88,67,104.89,66.8Z"/><path class="cls-2" d="M85.34,73.17c1.3-.37,2.58-.71,3.85-1A147.91,147.91,0,0,0,69,67.49c-5.07-.8-10.19-1.38-15.31-1.72-.12,1.23-.22,2.44-.3,3.62,4.92.07,9.83.38,14.72.89A142.23,142.23,0,0,1,85.34,73.17Z"/><path class="cls-2" d="M53.23,71.37c-.06,1-.1,2-.12,2.95q0,8.06.34,13a94,94,0,0,0,1.16,9.78q2.18,7.92,3.55,11.61A40.28,40.28,0,0,0,60,114.49,11.1,11.1,0,0,0,62.4,118a2.56,2.56,0,0,0,1.91.69,8.82,8.82,0,0,0,3.42-.75c1.18-.51,1.86-1.08,2-1.71a22.26,22.26,0,0,0,1.3-5.47,46.13,46.13,0,0,0,.34-4.65A77.4,77.4,0,0,1,73.06,94.4q.41-5.19.41-10.38l.27-7.11,1.09-.41c2.63-.92,5.21-1.76,7.72-2.52A141.71,141.71,0,0,0,67.9,72C63,71.55,58.12,71.34,53.23,71.37Z"/><path class="cls-2" d="M74.58,62c.06-1.08.12-2.21.18-3.36-1.25-.4-2.51-.8-3.77-1.18-5.18-1.56-10.45-2.92-15.75-4-.24,1.46-.46,2.9-.66,4.3q8,1.24,15.79,3.19C71.78,61.29,73.18,61.66,74.58,62Z"/><path class="cls-2" d="M91.22,71.48l2.47-.85.88-.32A153.57,153.57,0,0,0,76.5,64.2c-.7.23-1.37.44-2.08.69,0-.4,0-.82.07-1.22-1.5-.38-3-.75-4.51-1.1-5.17-1.17-10.41-2.13-15.66-2.84-.18,1.38-.35,2.74-.49,4.07,5.16.43,10.29,1.13,15.4,2A147.51,147.51,0,0,1,91.22,71.48Z"/><path class="cls-2" d="M74.85,57c.06-1.14.11-2.3.17-3.5l-3-1.14c-5.24-1.92-10.57-3.65-15.95-5.14-.18,1.3-.35,2.71-.5,4.25,5.37,1.24,10.67,2.73,15.92,4.41C72.62,56.25,73.73,56.63,74.85,57Z"/><path class="cls-2" d="M98.43,68.44C93.7,66.05,88.85,63.89,83.92,62c-1.58.42-3.19.87-4.85,1.39a150.17,150.17,0,0,1,17.11,6.38l2.81-1Z"/><path class="cls-2" d="M100.51,68.32c.43-.14,1.07-.37,1.93-.7l.63-.21c-1.19-.75-2.39-1.49-3.6-2.2q-4.36-2.53-8.88-4.79c-1.42.28-2.88.6-4.37,1,4.33,1.85,8.58,3.86,12.73,6.07Z"/><path class="cls-2" d="M104.89,80.48V88a57.75,57.75,0,0,0,.82,7.38,57.71,57.71,0,0,1,.82,6l.41,6a42.72,42.72,0,0,0,1.1,8.34l1.23,5.19a80.56,80.56,0,0,0,2.32,8.75c.09.45.64.54,1.64.27a4.64,4.64,0,0,0,2-1,172.12,172.12,0,0,0,6.56-30.88l.82-3.55c.35-1.39.62-2.69.86-4-.86-.61-1.73-1.2-2.62-1.77A91.82,91.82,0,0,0,104.89,80.48Z"/><path class="cls-2" d="M121.48,87.76a99.61,99.61,0,0,0-16.6-9.65c0,.42,0,.88,0,1.37a93.72,93.72,0,0,1,16.33,8.86c.81.55,1.61,1.12,2.39,1.7,0-.2.08-.41.11-.6C123,88.87,122.24,88.3,121.48,87.76Z"/><path class="cls-2" d="M111.19,75.92q-3.16-2.08-6.42-4c0,.62,0,1.3,0,2a106,106,0,0,1,17.82,12c.5.41,1,.84,1.46,1.27,0-.36.09-.73.12-1.08-.42-.38-.83-.78-1.26-1.16A111.32,111.32,0,0,0,111.19,75.92Z"/><path class="cls-2" d="M104.8,75.07c0,.51,0,1.17.06,2a99.93,99.93,0,0,1,17,10.25c.69.5,1.35,1,2,1.57.06-.37.09-.71.14-1.07-.58-.49-1.15-1-1.74-1.45A105.29,105.29,0,0,0,104.8,75.07Z"/><path class="cls-2" d="M100,64.24c1.45.89,2.87,1.81,4.28,2.75l.57-.19c0,.16,0,.34,0,.55q4,2.66,7.77,5.56A119.4,119.4,0,0,1,124,83.06l.32.34c0-.53.08-1,.11-1.51a129,129,0,0,0-24-19.72c-1.38-.9-2.78-1.77-4.18-2.62-1.16.14-2.34.3-3.54.51Q96.42,62.06,100,64.24Z"/><path class="cls-2" d="M75.1,51.79c0-1.06.09-2.14.14-3.24l-2.3-1q-7.14-3.13-14.48-5.77l-1.27-.44c-.3,1.11-.57,2.43-.82,3.94,5.49,1.62,10.9,3.49,16.25,5.56C73.45,51.12,74.27,51.46,75.1,51.79Z"/><path class="cls-2" d="M73.63,46l1.68.8c.22-5.1.42-10.62.62-16.59a1.43,1.43,0,0,0-1.64-1.37l-.69-.54a2,2,0,0,0-.95-.55h-.14l-.27-.14a5.72,5.72,0,0,0-1.78-.27,9.76,9.76,0,0,0-3.55.75A8.2,8.2,0,0,0,64,29.77a11.64,11.64,0,0,0-3.76,3.48,28.36,28.36,0,0,0-2.5,6.14l1.36.51Q66.49,42.68,73.63,46Z"/><path class="cls-2" d="M124.52,81.13c.21-2.95.33-4.68.33-5.17q.41-4.65.54-6.43a105,105,0,0,0,1-11.68q.19-6.08.2-16.33a37.45,37.45,0,0,1,.14-4.1l.14-4.65a27.14,27.14,0,0,0-1.51-9.9,10.57,10.57,0,0,0-5.33-5.67,3.81,3.81,0,0,0-1.77-.41,5.87,5.87,0,0,0-2.53.61A6.38,6.38,0,0,0,113.64,19,18.81,18.81,0,0,0,108,27.86a67.49,67.49,0,0,0-1.85,14.62l-.27,4.23q-.27,3.15-.68,12.44a52.37,52.37,0,0,0-7,.19q1.45.93,2.88,1.89A130.66,130.66,0,0,1,124.52,81.13Z"/><path class="cls-2" d="M112.12,73.58q-3.57-2.64-7.3-5c0,.64,0,1.39,0,2.26,2.33,1.42,4.63,2.89,6.88,4.44a112,112,0,0,1,11.62,9.31c.32.29.62.6.93.89,0-.43.07-.88.08-1.29-.22-.23-.43-.46-.66-.68A117.59,117.59,0,0,0,112.12,73.58Z"/><path class="cls-3" d="M74.49,63.67c0-.53.06-1.07.09-1.63-1.4-.38-2.8-.75-4.21-1.1Q62.54,59,54.58,57.75c-.09.67-.18,1.32-.26,2,5.25.71,10.49,1.67,15.66,2.84C71.49,62.92,73,63.29,74.49,63.67Z"/><path class="cls-3" d="M104.76,74v.5c0,.17,0,.39,0,.62a105.29,105.29,0,0,1,17.42,11.29c.59.47,1.16,1,1.74,1.45,0-.21.06-.41.08-.61-.49-.43-1-.86-1.46-1.27A106,106,0,0,0,104.76,74Z"/><path class="cls-3" d="M79.07,63.36c-.84.26-1.71.55-2.57.84a153.57,153.57,0,0,1,18.07,6.11l1.61-.57A150.17,150.17,0,0,0,79.07,63.36Z"/><path class="cls-3" d="M89.19,72.13l.54-.14,1.49-.51a147.51,147.51,0,0,0-22-5.65c-5.11-.9-10.24-1.6-15.4-2-.07.66-.13,1.32-.19,2,5.12.34,10.24.92,15.31,1.72A147.91,147.91,0,0,1,89.19,72.13Z"/><path class="cls-3" d="M104.86,77.06c0,.32,0,.68,0,1a99.61,99.61,0,0,1,16.6,9.65c.76.54,1.5,1.11,2.24,1.68,0-.19.08-.38.1-.56-.66-.53-1.32-1.07-2-1.57A99.93,99.93,0,0,0,104.86,77.06Z"/><path class="cls-3" d="M121.22,88.34a93.72,93.72,0,0,0-16.33-8.86v1a91.82,91.82,0,0,1,16,8.33c.89.57,1.76,1.16,2.62,1.77l.09-.54C122.83,89.46,122,88.89,121.22,88.34Z"/><path class="cls-3" d="M68.06,70.28c-4.89-.51-9.8-.82-14.72-.89,0,.67-.08,1.33-.11,2,4.89,0,9.8.18,14.67.59a141.71,141.71,0,0,1,14.65,2c.94-.29,1.87-.55,2.79-.81A142.23,142.23,0,0,0,68.06,70.28Z"/><path class="cls-3" d="M99,68.74l.85-.3s.27,0,.67-.12L99,67.45c-4.15-2.21-8.4-4.22-12.73-6.07-.76.19-1.53.38-2.3.59,4.93,1.92,9.78,4.08,14.51,6.47Z"/><path class="cls-3" d="M111.66,75.23c-2.25-1.55-4.55-3-6.88-4.44,0,.36,0,.74,0,1.14q3.26,1.91,6.42,4a111.32,111.32,0,0,1,11.71,9c.43.38.84.78,1.26,1.16,0-.23,0-.45,0-.69-.31-.29-.61-.6-.93-.89A112,112,0,0,0,111.66,75.23Z"/><path class="cls-3" d="M74.76,58.68c0-.55.06-1.1.09-1.67-1.12-.38-2.23-.76-3.36-1.12-5.25-1.68-10.55-3.17-15.92-4.41v0c-.11.66-.21,1.3-.32,2,5.3,1.13,10.57,2.49,15.75,4C72.25,57.88,73.51,58.28,74.76,58.68Z"/><path class="cls-3" d="M112.63,72.91q-3.8-2.91-7.77-5.56c0,.33,0,.73,0,1.18q3.72,2.41,7.3,5a117.59,117.59,0,0,1,11.51,9.88c.23.22.44.45.66.68,0,0,0-.08,0-.12,0-.22,0-.41,0-.62l-.32-.34A119.4,119.4,0,0,0,112.63,72.91Z"/><path class="cls-3" d="M103.07,67.41l1.25-.42c-1.41-.94-2.83-1.86-4.28-2.75q-3.62-2.19-7.34-4.18c-.7.11-1.39.22-2.11.36q4.51,2.27,8.88,4.79C100.68,65.92,101.88,66.66,103.07,67.41Z"/><path class="cls-3" d="M75,53.51c0-.56,0-1.15.08-1.72-.83-.33-1.65-.67-2.48-1-5.35-2.07-10.76-3.94-16.25-5.56-.11.63-.21,1.29-.3,2,5.38,1.49,10.71,3.22,15.95,5.14Z"/><path class="cls-3" d="M72.94,47.51l2.3,1c0-.59.05-1.19.07-1.78L73.63,46q-7.14-3.28-14.49-6.07l-1.36-.51,0,.08c-.19.53-.38,1.15-.56,1.83l1.27.44Q65.8,44.37,72.94,47.51Z"/><path class="cls-3" d="M100.42,62.17a129,129,0,0,1,24,19.72c0-.26,0-.52.06-.76A130.66,130.66,0,0,0,101,61.23q-1.42-1-2.88-1.89c-.63,0-1.28.13-1.92.21C97.64,60.4,99,61.27,100.42,62.17Z"/><text class="cls-4" transform="translate(40.64 158.48)">hope</text></g></svg>