<svg xmlns="http://www.w3.org/2000/svg" viewBox="0 0 408.26 146.26"><defs><style>.cls-1{fill:none;}.cls-2,.cls-4{fill:#f18b23;}.cls-3{fill:#fff;}.cls-4{font-size:78.96px;font-family:AdobeMingStd-Light-B5pc-H, Adobe Ming Std;letter-spacing:0.1em;}</style></defs><g id="圖層_1" data-name="圖層 1"><path class="cls-1" d="M113.14,66.73l-.62.21.58.39C113.12,67.11,113.13,66.91,113.14,66.73Z"/><path class="cls-2" d="M91.79,73.69c1.42-.4,2.82-.78,4.2-1.13a160.79,160.79,0,0,0-22.1-5.08c-5.53-.87-11.12-1.5-16.72-1.87-.12,1.35-.23,2.66-.32,4,5.37.08,10.73.42,16.07,1A152.22,152.22,0,0,1,91.79,73.69Z"/><path class="cls-2" d="M56.73,71.72c-.06,1.09-.11,2.17-.14,3.22q0,8.81.38,14.25a102.64,102.64,0,0,0,1.27,10.67q2.38,8.65,3.88,12.68a43.55,43.55,0,0,0,2,6.26,12.05,12.05,0,0,0,2.61,3.88,2.81,2.81,0,0,0,2.09.75,9.54,9.54,0,0,0,3.73-.82c1.29-.55,2-1.17,2.24-1.87a24.1,24.1,0,0,0,1.41-6,48.26,48.26,0,0,0,.38-5.08,85.06,85.06,0,0,1,1.79-12.83c.29-3.78.45-7.56.45-11.34l.29-7.76,1.2-.44q4.31-1.52,8.43-2.76a154.18,154.18,0,0,0-16-2.2C67.43,71.92,62.07,71.69,56.73,71.72Z"/><path class="cls-2" d="M80.05,61.54c.06-1.19.13-2.41.19-3.67-1.37-.44-2.74-.88-4.12-1.29-5.66-1.7-11.41-3.19-17.19-4.42-.26,1.59-.51,3.16-.72,4.7,5.8.89,11.54,2.07,17.24,3.47C77,60.71,78.52,61.12,80.05,61.54Z"/><path class="cls-2" d="M98.21,71.84l2.7-.93,1-.34a167.23,167.23,0,0,0-19.74-6.68l-2.26.75c0-.42,0-.88.07-1.32-1.63-.42-3.27-.83-4.92-1.2-5.64-1.28-11.36-2.33-17.1-3.11-.2,1.51-.38,3-.53,4.44,5.63.48,11.24,1.24,16.81,2.22A161.42,161.42,0,0,1,98.21,71.84Z"/><path class="cls-2" d="M80.34,56c.06-1.24.12-2.51.18-3.82-1.09-.42-2.18-.84-3.27-1.24-5.72-2.1-11.55-4-17.42-5.62-.2,1.42-.38,3-.55,4.65,5.87,1.35,11.66,3,17.39,4.81Z"/><path class="cls-2" d="M106.08,68.53q-7.74-3.93-15.84-7.08c-1.73.46-3.49,1-5.29,1.52a167.63,167.63,0,0,1,18.68,7l3.06-1.09C106.49,68.75,106.29,68.63,106.08,68.53Z"/><path class="cls-2" d="M108.35,68.39c.47-.15,1.17-.4,2.11-.76l.69-.23c-1.3-.82-2.61-1.63-3.93-2.41-3.18-1.84-6.41-3.57-9.69-5.22-1.56.3-3.15.65-4.78,1,4.72,2,9.37,4.21,13.9,6.62Z"/><path class="cls-2" d="M113.14,81.67v8.19a62,62,0,0,0,.9,8.06c.39,2.09.69,4.27.89,6.56l.45,6.57a47.87,47.87,0,0,0,1.19,9.1l1.35,5.67a89.06,89.06,0,0,0,2.53,9.55c.1.49.7.59,1.79.3a5.17,5.17,0,0,0,2.24-1,187.86,187.86,0,0,0,7.16-33.72l.9-3.88c.38-1.51.67-2.94.93-4.32-.93-.67-1.88-1.32-2.85-1.93A99.37,99.37,0,0,0,113.14,81.67Z"/><path class="cls-2" d="M131.25,89.62a108.58,108.58,0,0,0-18.13-10.54c0,.47,0,1,0,1.5A101.35,101.35,0,0,1,131,90.26c.89.59,1.76,1.21,2.62,1.85,0-.22.08-.45.12-.66C132.89,90.83,132.08,90.21,131.25,89.62Z"/><path class="cls-2" d="M120,76.7q-3.44-2.28-7-4.36c0,.68,0,1.41,0,2.2a115,115,0,0,1,19.46,13.08c.54.45,1.06.92,1.6,1.38,0-.39.09-.79.13-1.17-.46-.42-.91-.86-1.38-1.27A119.55,119.55,0,0,0,120,76.7Z"/><path class="cls-2" d="M113,75.77c0,.55,0,1.27.07,2.16a109.39,109.39,0,0,1,18.5,11.2c.75.55,1.48,1.13,2.2,1.71.06-.4.1-.78.15-1.17-.63-.53-1.25-1.07-1.9-1.58A113.93,113.93,0,0,0,113,75.77Z"/><path class="cls-2" d="M107.85,63.94c1.57,1,3.12,2,4.67,3l.62-.21c0,.18,0,.38,0,.6,2.89,1.94,5.73,4,8.48,6.07A128.54,128.54,0,0,1,134,84.49l.35.37c.05-.58.09-1.13.13-1.65a140.92,140.92,0,0,0-26.25-21.53q-2.27-1.47-4.57-2.86c-1.26.15-2.55.33-3.87.55Q103.89,61.56,107.85,63.94Z"/><path class="cls-2" d="M80.61,50.34c0-1.16.1-2.33.15-3.54l-2.51-1.13q-7.8-3.42-15.81-6.3l-1.39-.48c-.32,1.21-.62,2.65-.89,4.3,6,1.77,11.9,3.81,17.74,6.07Z"/><path class="cls-2" d="M79,44l1.84.87c.23-5.57.46-11.59.67-18.11a1.56,1.56,0,0,0-1.79-1.5L79,24.66a2.19,2.19,0,0,0-1-.6h-.15l-.3-.15a6.07,6.07,0,0,0-1.94-.3,10.64,10.64,0,0,0-3.88.83,9.07,9.07,0,0,0-3.13,1.86,12.7,12.7,0,0,0-4.1,3.8,31,31,0,0,0-2.73,6.71l1.48.55Q71.21,40.41,79,44Z"/><path class="cls-2" d="M134.57,82.38c.23-3.22.36-5.11.36-5.65.3-3.38.49-5.72.59-7A114.26,114.26,0,0,0,136.64,57q.23-6.65.22-17.83a37.4,37.4,0,0,1,.16-4.48l.14-5.07a29.47,29.47,0,0,0-1.64-10.81,11.58,11.58,0,0,0-5.82-6.2,4.22,4.22,0,0,0-1.93-.45,6.45,6.45,0,0,0-2.77.68,6.9,6.9,0,0,0-2.31,1.71,20.48,20.48,0,0,0-6.19,9.7q-1.57,5.52-2,16l-.29,4.63q-.3,3.44-.75,13.58a57,57,0,0,0-7.65.21c1,.68,2.11,1.36,3.15,2.06A142.76,142.76,0,0,1,134.57,82.38Z"/><path class="cls-2" d="M121,74.14c-2.6-1.93-5.26-3.76-8-5.52,0,.7,0,1.52,0,2.47q3.83,2.32,7.52,4.85A122.75,122.75,0,0,1,133.22,86.1l1,1c0-.48.08-1,.09-1.42-.24-.24-.47-.5-.72-.74A129,129,0,0,0,121,74.14Z"/><path class="cls-3" d="M79.94,63.32c0-.59.07-1.18.11-1.78-1.53-.42-3.06-.83-4.6-1.21-5.7-1.4-11.44-2.58-17.24-3.47-.11.72-.2,1.44-.29,2.15,5.74.78,11.46,1.83,17.1,3.11C76.67,62.49,78.31,62.9,79.94,63.32Z"/><path class="cls-3" d="M113,74.54v.55c0,.18,0,.42.05.68a113.93,113.93,0,0,1,19,12.32c.65.51,1.27,1,1.9,1.58l.09-.67c-.54-.46-1.06-.93-1.6-1.38A115,115,0,0,0,113,74.54Z"/><path class="cls-3" d="M85,63c-.92.29-1.87.61-2.82.92a167.23,167.23,0,0,1,19.74,6.68l1.76-.63A167.63,167.63,0,0,0,85,63Z"/><path class="cls-3" d="M96,72.56l.59-.16,1.63-.56a161.42,161.42,0,0,0-24-6.17c-5.57-1-11.18-1.74-16.81-2.22-.08.73-.15,1.45-.22,2.16,5.6.37,11.19,1,16.72,1.87A160.79,160.79,0,0,1,96,72.56Z"/><path class="cls-3" d="M113.11,77.93c0,.36,0,.74,0,1.15a108.58,108.58,0,0,1,18.13,10.54c.83.59,1.64,1.21,2.45,1.83,0-.2.08-.42.11-.61-.72-.58-1.45-1.16-2.2-1.71A109.39,109.39,0,0,0,113.11,77.93Z"/><path class="cls-3" d="M131,90.26a101.35,101.35,0,0,0-17.82-9.68v1.09a99.37,99.37,0,0,1,17.48,9.1c1,.61,1.92,1.26,2.85,1.93,0-.2.08-.4.11-.59C132.72,91.47,131.85,90.85,131,90.26Z"/><path class="cls-3" d="M72.92,70.54c-5.34-.56-10.7-.9-16.07-1q-.08,1.09-.12,2.16c5.34,0,10.7.2,16,.65a154.18,154.18,0,0,1,16,2.2c1-.31,2-.6,3-.88A152.22,152.22,0,0,0,72.92,70.54Z"/><path class="cls-3" d="M106.69,68.85l.93-.33s.3,0,.73-.13l-1.7-1c-4.53-2.41-9.18-4.61-13.9-6.62l-2.51.63q8.08,3.17,15.84,7.08C106.29,68.63,106.49,68.75,106.69,68.85Z"/><path class="cls-3" d="M120.53,75.94q-3.69-2.53-7.52-4.85c0,.4,0,.81,0,1.25q3.57,2.09,7,4.36a119.55,119.55,0,0,1,12.79,9.86c.47.41.92.85,1.38,1.27,0-.26,0-.5,0-.75l-1-1A122.75,122.75,0,0,0,120.53,75.94Z"/><path class="cls-3" d="M80.24,57.87c0-.6.07-1.2.1-1.83l-3.67-1.22C70.94,53,65.15,51.36,59.28,50h0c-.12.72-.24,1.43-.35,2.14,5.78,1.23,11.53,2.72,17.19,4.42C77.5,57,78.87,57.43,80.24,57.87Z"/><path class="cls-3" d="M121.58,73.4c-2.75-2.12-5.59-4.13-8.48-6.07,0,.36,0,.8,0,1.29,2.71,1.76,5.37,3.59,8,5.52A129,129,0,0,1,133.6,84.92c.25.24.48.5.72.74,0,0,0-.09,0-.13,0-.23,0-.44,0-.67l-.35-.37A128.54,128.54,0,0,0,121.58,73.4Z"/><path class="cls-3" d="M111.15,67.4l1.37-.46c-1.55-1-3.1-2-4.67-3q-4-2.38-8-4.57c-.76.13-1.51.25-2.29.4,3.28,1.65,6.51,3.38,9.69,5.22C108.54,65.77,109.85,66.58,111.15,67.4Z"/><path class="cls-3" d="M80.52,52.22c0-.61.06-1.25.09-1.88L77.9,49.26C72.06,47,66.16,45,60.16,43.19c-.12.69-.23,1.41-.33,2.17C65.7,47,71.53,48.88,77.25,51,78.34,51.38,79.43,51.8,80.52,52.22Z"/><path class="cls-3" d="M78.25,45.67l2.51,1.13c0-.63.06-1.29.08-1.94L79,44q-7.78-3.59-15.82-6.63l-1.48-.55,0,.08c-.22.58-.42,1.26-.62,2l1.39.48Q70.44,42.25,78.25,45.67Z"/><path class="cls-3" d="M108.26,61.68a140.92,140.92,0,0,1,26.25,21.53c0-.29,0-.57.06-.83a142.76,142.76,0,0,0-25.63-21.73c-1-.7-2.1-1.38-3.15-2.06-.69.06-1.4.14-2.1.23Q106,60.22,108.26,61.68Z"/><text class="cls-4" transform="translate(166.27 108.75)">hope</text></g></svg>