<svg id="圖層_1" data-name="圖層 1" xmlns="http://www.w3.org/2000/svg" xmlns:xlink="http://www.w3.org/1999/xlink" viewBox="0 0 715.76 209.33"><defs><style>.cls-1{fill:url(#linear-gradient);}.cls-2{fill:url(#linear-gradient-2);}.cls-3{fill:url(#linear-gradient-3);}.cls-4{fill:url(#linear-gradient-4);}.cls-5{fill:url(#linear-gradient-5);}.cls-6{fill:url(#linear-gradient-6);}.cls-7{fill:url(#linear-gradient-7);}.cls-8{fill:url(#linear-gradient-8);}.cls-9{fill:url(#linear-gradient-9);}.cls-10{fill:url(#linear-gradient-10);}.cls-11{fill:url(#linear-gradient-11);}.cls-12{fill:url(#linear-gradient-12);}</style><linearGradient id="linear-gradient" x1="59.48" y1="69.68" x2="161.54" y2="155.32" gradientUnits="userSpaceOnUse"><stop offset="0" stop-color="#ce9349"/><stop offset="0.09" stop-color="#67421d"/><stop offset="0.29" stop-color="#ce9349"/><stop offset="0.31" stop-color="#cf964e"/><stop offset="0.54" stop-color="#dbb27f"/><stop offset="0.62" stop-color="#d7a86d"/><stop offset="0.8" stop-color="#ce9349"/><stop offset="0.89" stop-color="#8b5e2c"/><stop offset="0.94" stop-color="#67421d"/><stop offset="1" stop-color="#b57f3d"/></linearGradient><linearGradient id="linear-gradient-2" x1="113.94" y1="92.27" x2="64.22" y2="133.98" xlink:href="#linear-gradient"/><linearGradient id="linear-gradient-3" x1="138.18" y1="88.7" x2="94" y2="125.77" xlink:href="#linear-gradient"/><linearGradient id="linear-gradient-4" x1="202.11" y1="110.91" x2="673.29" y2="107.34" xlink:href="#linear-gradient"/><linearGradient id="linear-gradient-5" x1="202.12" y1="111.02" x2="673.29" y2="107.45" xlink:href="#linear-gradient"/><linearGradient id="linear-gradient-6" x1="202.21" y1="123.07" x2="673.38" y2="119.5" xlink:href="#linear-gradient"/><linearGradient id="linear-gradient-7" x1="202.28" y1="133.28" x2="673.46" y2="129.71" xlink:href="#linear-gradient"/><linearGradient id="linear-gradient-8" x1="202.13" y1="112.63" x2="673.3" y2="109.05" xlink:href="#linear-gradient"/><linearGradient id="linear-gradient-9" x1="202.22" y1="124.47" x2="673.39" y2="120.9" xlink:href="#linear-gradient"/><linearGradient id="linear-gradient-10" x1="202.22" y1="124.5" x2="673.39" y2="120.93" xlink:href="#linear-gradient"/><linearGradient id="linear-gradient-11" x1="202.22" y1="125.33" x2="673.4" y2="121.76" xlink:href="#linear-gradient"/><linearGradient id="linear-gradient-12" x1="202.23" y1="125.61" x2="673.4" y2="122.03" xlink:href="#linear-gradient"/></defs><path class="cls-1" d="M86,176.88a26.55,26.55,0,0,0,4.52-5,23.64,23.64,0,0,0,3-5.86,23.36,23.36,0,0,0,.9-3.14,21.65,21.65,0,0,0,.39-3.21,24.4,24.4,0,0,0-.52-6.38l2.11,1c-7,4.34-15.56,7.07-24.35,6.41A32.55,32.55,0,0,1,59.5,157,41.77,41.77,0,0,1,49,149.16a47.73,47.73,0,0,1-12.37-22.89,45.73,45.73,0,0,1-.92-6.64c0-.56-.06-1.12-.07-1.68l0-1.67c.06-1.11,0-2.23.16-3.34A47,47,0,0,1,39,100a56.67,56.67,0,0,1,6.19-11.59c1.18-1.83,2.5-3.5,3.79-5.21s2.67-3.32,4.09-4.86C58.66,72,64.66,66.38,70.57,60.8A204.82,204.82,0,0,0,87,43.72a107.42,107.42,0,0,0,7.06-9.18c.52-.78,1-1.56,1.5-2.34a24.36,24.36,0,0,0,1.19-2.15,10.71,10.71,0,0,1,19.42,0c.24.53.74,1.4,1.19,2.15s1,1.56,1.51,2.34a105.61,105.61,0,0,0,7.05,9.17,203.41,203.41,0,0,0,16.45,17.08c5.91,5.58,11.91,11.21,17.52,17.5,1.42,1.54,2.74,3.23,4.09,4.86s2.62,3.38,3.79,5.21A57.46,57.46,0,0,1,174,100a47.45,47.45,0,0,1,3.09,13c.16,1.11.1,2.23.16,3.34l0,1.67c0,.56,0,1.12-.06,1.68a44.72,44.72,0,0,1-.93,6.65,47.64,47.64,0,0,1-12.37,22.89A41.64,41.64,0,0,1,153.44,157a32.56,32.56,0,0,1-12.59,3.74c-8.8.67-17.31-2.08-24.37-6.41l2.13-1a24.84,24.84,0,0,0-.53,6.38,23.06,23.06,0,0,0,.39,3.21,26,26,0,0,0,.9,3.13,23.53,23.53,0,0,0,3,5.87,26.21,26.21,0,0,0,4.52,5,24.55,24.55,0,0,1-5.16-4.45,25.31,25.31,0,0,1-3.85-5.76,12,12,0,0,1-.71-1.6c-.19-.56-.42-1.1-.59-1.66a24,24,0,0,1-.77-3.46,26.86,26.86,0,0,1-.1-7.11l.17-2,2,.92a46.63,46.63,0,0,0,11.07,3.79,33,33,0,0,0,11.33.28,32.13,32.13,0,0,0,18.82-11.14,41,41,0,0,0,6-9.42,39.87,39.87,0,0,0,3.36-10.56,36.88,36.88,0,0,0,.48-5.43V118l-.1-1.38c-.09-.91-.07-1.83-.24-2.73a38.55,38.55,0,0,0-3-10.49,49.06,49.06,0,0,0-5.59-9.65c-1.07-1.55-2.32-3-3.51-4.52s-2.53-2.92-3.89-4.33c-5.32-5.71-11.3-11.05-17.29-16.51a207,207,0,0,1-17.53-17.75A117.4,117.4,0,0,1,110,40.53c-.61-.91-1.22-1.82-1.8-2.77a32.86,32.86,0,0,1-1.76-3.17s0,0,0,0,0,0,0,0a33.67,33.67,0,0,1-1.75,3.16c-.59,1-1.19,1.87-1.8,2.78a117.5,117.5,0,0,1-7.82,10.08A209.93,209.93,0,0,1,77.55,68.36c-6,5.44-12,10.79-17.29,16.51-1.37,1.4-2.6,2.87-3.89,4.32s-2.44,3-3.51,4.52a49.35,49.35,0,0,0-5.59,9.65,38.26,38.26,0,0,0-3,10.5c-.18.9-.15,1.82-.24,2.73L44,118v1.35a38.43,38.43,0,0,0,.48,5.44,42.39,42.39,0,0,0,9.42,20,32.19,32.19,0,0,0,18.83,11.15A33,33,0,0,0,84,155.6a47.08,47.08,0,0,0,11.07-3.79L97,150.9l.17,1.94a26.86,26.86,0,0,1-.1,7.11,23.57,23.57,0,0,1-.76,3.45c-.17.57-.4,1.11-.6,1.66a11.52,11.52,0,0,1-.7,1.61,25.31,25.31,0,0,1-3.85,5.76A24.55,24.55,0,0,1,86,176.88Z"/><path class="cls-2" d="M103.24,140.27a54.87,54.87,0,0,1-13.72,2.62,32.06,32.06,0,0,1-14-2.25,23.17,23.17,0,0,1-10.89-9.36,26.78,26.78,0,0,1-3.72-14,35.14,35.14,0,0,1,3.09-14.16A56.26,56.26,0,0,1,71.72,91a101,101,0,0,1,9.69-10.34,128,128,0,0,1,10.85-9.13l1.62-1.2,1.63,1.38C96.79,72.8,97.86,73.85,99,75s2.15,2.3,3.15,3.53a33.16,33.16,0,0,1,5.1,8.34,19.45,19.45,0,0,1,1.34,5.09,15,15,0,0,1-.36,5.59,14.4,14.4,0,0,1-2.52,5.06,18.19,18.19,0,0,1-3.9,3.62,24.25,24.25,0,0,1-4.43,2.47,19.68,19.68,0,0,1-5,1.32,17.92,17.92,0,0,1-5.12-.06,20.83,20.83,0,0,1-4.79-1.4,23,23,0,0,1-4.21-2.36,29.23,29.23,0,0,1-3.63-3A32.83,32.83,0,0,1,69,96l-.15-.27.43-.31.22.22a44.2,44.2,0,0,0,6.8,5.56,27.26,27.26,0,0,0,7.58,3.57,15.48,15.48,0,0,0,7.69.25,14.33,14.33,0,0,0,3.54-1.34,17.48,17.48,0,0,0,3.24-2.11A10.35,10.35,0,0,0,102.09,96a12,12,0,0,0-.74-6.84A39.4,39.4,0,0,0,92,75.68l3.24.18A114.63,114.63,0,0,0,84.6,84.17,97.25,97.25,0,0,0,75,93.72a52.46,52.46,0,0,0-7.51,11,31.83,31.83,0,0,0-3.25,12.62A24.56,24.56,0,0,0,67,129.94a20.8,20.8,0,0,0,9.41,8.85,30.16,30.16,0,0,0,13.08,2.72,54,54,0,0,0,13.58-1.83l.3-.08.16.57Z"/><path class="cls-3" d="M108.18,57.65a285.42,285.42,0,0,0,20.94,24.73c1.86,2,3.82,3.72,5.79,5.69s3.81,4,5.61,6.06A72.57,72.57,0,0,1,150,107.89a32.76,32.76,0,0,1,1.72,4,16.31,16.31,0,0,1,1,4.63,51.83,51.83,0,0,1-.43,8.58,27.34,27.34,0,0,1-2.68,8.57,20.4,20.4,0,0,1-6,7.17A22.46,22.46,0,0,1,135,144.6a33.44,33.44,0,0,1-8.87.63,50.51,50.51,0,0,1-8.49-1.25,68,68,0,0,1-8.07-2.33l-1.85-.65.05-1.76c.11-3.57.26-7.15.43-10.73s.35-7.16.54-10.74l.09-1.61,1.44.08c2.48.15,5,.36,7.44.54s5,.42,7.43.68l.31,0V118l-.31,0c-2.48.26-5,.48-7.43.69s-5,.39-7.44.53l1.53-1.52c.19,3.58.4,7.16.54,10.74s.32,7.16.43,10.73l-1.8-2.4A73.79,73.79,0,0,0,126.37,139c5,.06,9.9-.71,13.67-3.15A15,15,0,0,0,144.7,131a21.39,21.39,0,0,0,2.52-6.77,32.7,32.7,0,0,0,.55-3.74c.06-.64.1-1.28.13-1.94l.09-1.93a12.14,12.14,0,0,0-.56-3.33,28.19,28.19,0,0,0-1.33-3.53,68.3,68.3,0,0,0-8.33-13.37c-1.63-2.11-3.35-4.15-5.14-6.13s-3.71-4-5.48-6c-3.59-4.13-6.92-8.44-10.16-12.81s-6.34-8.83-9.32-13.38l-.17-.25.49-.34Z"/><path class="cls-4" d="M228.07,113.81v22.65a10.45,10.45,0,0,0,.4,3.73c.13.27.6.55,1.4.85a21.13,21.13,0,0,0,4.72.76q3.51.3,9.63.3v1H200.88v-1q5.12,0,8.48-.3a20.21,20.21,0,0,0,4.56-.76c.8-.3,1.27-.58,1.41-.85a10.7,10.7,0,0,0,.4-3.73V84.74a9.79,9.79,0,0,0-.4-3.52,2.33,2.33,0,0,0-1.21-.81c-2.07-.73-6.48-1.11-13.24-1.11v-.9H239.8q11.94,0,18.86,5.52a16.63,16.63,0,0,1,6.52,13.64q0,5.72-5,10.43-6.23,5.82-16.86,5.82Zm0-.9h10.17q8.35,0,11.68-4.33,2.82-3.72,2.82-11.87,0-8.55-3.72-13T237.54,79.3H232.7a11.74,11.74,0,0,0-3.12.31,1.69,1.69,0,0,0-1.26,1.25,18.66,18.66,0,0,0-.25,3.88Z"/><path class="cls-5" d="M285,138.28a7.08,7.08,0,0,0,.3,2.61,2.09,2.09,0,0,0,.9.61q2.11.7,8.73.7v.9H265.68v-.9c1.94,0,3.69-.06,5.27-.2a16.39,16.39,0,0,0,4.06-.8c.4-.34.6-1.31.6-2.93V84.53a4.86,4.86,0,0,0-.6-2.81,2.63,2.63,0,0,0-1.2-1,38.4,38.4,0,0,0-8-.5V79.3L285,77.6Z"/><path class="cls-6" d="M323.46,114v-5.84c0-2.69-.42-4.51-1.28-5.45s-2.69-1.41-5.51-1.41a13.1,13.1,0,0,0-6.06,1.34,6.49,6.49,0,0,0-3.4,3.58,4.06,4.06,0,0,1,1-.1,3.8,3.8,0,0,1,3.11,1.5,5.29,5.29,0,0,1,1.21,3.41,4.72,4.72,0,0,1-1.52,3.62,5.09,5.09,0,0,1-3.55,1.4,4.05,4.05,0,0,1-2.33-.7,5.61,5.61,0,0,1-2.93-4.82,10.3,10.3,0,0,1,.6-3.21q1.4-3.92,7-5.72a26.38,26.38,0,0,1,8.13-1.3q7.41,0,11.23,2.8a7.56,7.56,0,0,1,3.41,6.31v22.11a51.33,51.33,0,0,0,.3,7.41q.71,3.4,3.61,3.4a3.47,3.47,0,0,0,3.51-2.69,25.8,25.8,0,0,0,.91-7.78q0-1.4-.06-2.79c0-.93-.05-1.9-.05-2.89v-.9H342v4.41c0,1.4,0,2.74.1,4q0,5.82-1.41,7.83-1.81,2.5-7.37,2.51-4.33,0-6.45-1.49-2.52-1.8-3.33-6.07a11.54,11.54,0,0,1-6.32,6.56,18.45,18.45,0,0,1-6.72,1,13.17,13.17,0,0,1-7.32-2,9.08,9.08,0,0,1-4.32-8.24,11.73,11.73,0,0,1,4.2-9.14,17.44,17.44,0,0,1,10.19-4.12c4-.33,6.69-.87,8.09-1.6S323.46,116.52,323.46,114Zm-.3,18.15V118.71a5.22,5.22,0,0,1-3.56,2l-4.57.65a7.53,7.53,0,0,0-4.61,3.23q-2,3-2,8.46,0,5.85,1.16,7.92a3.87,3.87,0,0,0,3.66,2.06,9.36,9.36,0,0,0,6.87-3.17A10.71,10.71,0,0,0,323.16,132.12Z"/><path class="cls-7" d="M363.69,152.71a33.84,33.84,0,0,1-3.92,8.54,6.48,6.48,0,0,1-5.42,2.82,17.08,17.08,0,0,1-6.21-.85,4.21,4.21,0,0,1-2.56-2.92A13.2,13.2,0,0,1,345,157a5.28,5.28,0,0,1,5.17-5.11,4.71,4.71,0,0,1,3.39,1.45,5.22,5.22,0,0,1,1.47,3.87c0,2.87-1.35,4.48-4.05,4.81a2.42,2.42,0,0,0,1.45.89,9.84,9.84,0,0,0,1.55.11,5.45,5.45,0,0,0,4.41-2.06q1.71-2.07,3.61-7.62l3.21-9.07L350.75,105c-.61-1.55-1-2.45-1.11-2.72-.4-.67-1.57-1-3.51-1h-2.31v-1h23v1c-1.54,0-3.09,0-4.66,0s-2.36.46-2.36,1.26l.6,2,9.7,25.86,6.75-19.72A18.15,18.15,0,0,0,378,105.3q0-4-6.72-4v-1h16.75v1a8.65,8.65,0,0,0-5.92,1.86q-2.1,1.86-4.71,9.3Z"/><path class="cls-8" d="M468.71,143.1h-.8a10.87,10.87,0,0,0-1.3-5.89,3.81,3.81,0,0,0-3.26-2,8.35,8.35,0,0,0-5.71,2c-.74.66-1.44,1.34-2.11,2a26.09,26.09,0,0,1-6.26,3.82,20.7,20.7,0,0,1-6.87.91,27,27,0,0,1-19-7.13Q414,128.36,414,112.21q0-15.64,10.22-25.88Q433,77.6,442.19,77.6a23.47,23.47,0,0,1,10,1.81q4.82,2.31,9.52,8.72l5.68-10.53v28.29h-.91Q464.4,92.6,458,85.3q-6-6.8-14.15-6.8-7.71,0-12.18,8.52t-4.47,24q0,15.44,4.14,23.74t11.4,8.31q6.78,0,10.57-3.62c2.52-2.41,3.78-5.94,3.78-10.56V116.74a11.59,11.59,0,0,0-.29-3.42,2.25,2.25,0,0,0-1.31-1.11,17.7,17.7,0,0,0-4.06-.7,52.07,52.07,0,0,0-5.27-.3v-.91h34.61v.91a46.85,46.85,0,0,0-5.52.4c-2.21.27-3.69.47-4.46.6a2.09,2.09,0,0,0-1.46.7,8.31,8.31,0,0,0-.6,3.83Z"/><path class="cls-9" d="M507.33,114v-5.84q0-4-1.28-5.45c-.85-.94-2.7-1.41-5.52-1.41a13.09,13.09,0,0,0-6,1.34,6.49,6.49,0,0,0-3.4,3.58,4,4,0,0,1,1-.1,3.8,3.8,0,0,1,3.11,1.5,5.34,5.34,0,0,1,1.2,3.41,4.68,4.68,0,0,1-1.52,3.62,5.07,5.07,0,0,1-3.54,1.4,4,4,0,0,1-2.33-.7,5.62,5.62,0,0,1-2.94-4.82,10.3,10.3,0,0,1,.6-3.21q1.41-3.92,7-5.72a26.36,26.36,0,0,1,8.12-1.3q7.43,0,11.24,2.8a7.56,7.56,0,0,1,3.41,6.31v22.11a49.8,49.8,0,0,0,.3,7.41c.46,2.27,1.67,3.4,3.61,3.4a3.47,3.47,0,0,0,3.51-2.69,25.86,25.86,0,0,0,.9-7.78c0-.93,0-1.86,0-2.79s-.05-1.9-.05-2.89v-.9h1.21v4.41c0,1.4,0,2.74.1,4,0,3.88-.48,6.49-1.42,7.83q-1.82,2.5-7.36,2.51-4.34,0-6.45-1.49c-1.69-1.2-2.79-3.22-3.33-6.07a11.57,11.57,0,0,1-6.32,6.56,18.45,18.45,0,0,1-6.72,1,13.17,13.17,0,0,1-7.32-2,9.08,9.08,0,0,1-4.32-8.24,11.73,11.73,0,0,1,4.2-9.14,17.41,17.41,0,0,1,10.19-4.12c4-.33,6.69-.87,8.09-1.6S507.33,116.52,507.33,114Zm-.3,18.15V118.71a5.24,5.24,0,0,1-3.57,2l-4.56.65a7.53,7.53,0,0,0-4.61,3.23q-2,3-2,8.46c0,3.9.38,6.54,1.16,7.92A3.86,3.86,0,0,0,497.1,143a9.36,9.36,0,0,0,6.87-3.17A10.71,10.71,0,0,0,507,132.12Z"/><path class="cls-10" d="M570.42,112.46a23.62,23.62,0,0,1,2.3-7.29,8.88,8.88,0,0,1,6.89-4.8,12.66,12.66,0,0,0,1.55-.1,11.06,11.06,0,0,1,1.25-.1A13.11,13.11,0,0,1,592.3,104a10.64,10.64,0,0,1,3.1,7.64v26.65a6.68,6.68,0,0,0,.3,2.51,1.7,1.7,0,0,0,.95.71,11.35,11.35,0,0,0,2.71.5,31.21,31.21,0,0,0,3.26.2v.9H578.85v-.9a34.65,34.65,0,0,0,3.71-.15,7.89,7.89,0,0,0,2.81-1c.4-.33.6-1.28.6-2.82V112.76a26,26,0,0,0-.81-7.35q-1.3-4.14-4.74-4.14a6.92,6.92,0,0,0-5.86,3.33q-2.62,3.72-4,13.51v20.16a6.86,6.86,0,0,0,.31,2.62,1.87,1.87,0,0,0,.9.56,15.52,15.52,0,0,0,2.55.5,25.49,25.49,0,0,0,3.46.25v.9H553.87v-.9a19.43,19.43,0,0,0,5.92-.71l.7-.3c.4-.33.6-1.31.6-2.92V112.76a25.42,25.42,0,0,0-.8-7.35q-1.31-4.14-4.81-4.14-4.51,0-7,5.75a46.64,46.64,0,0,0-2.72,11.49v19.76a7.07,7.07,0,0,0,.31,2.62,2.08,2.08,0,0,0,1,.6,10.64,10.64,0,0,0,2.71.51,31.06,31.06,0,0,0,3.26.2v.9H527.59v-.9c1.4,0,2.82-.06,4.26-.2a16,16,0,0,0,3.87-.8c.4-.34.6-1.31.6-2.92V107.81c0-.6,0-1.21-.05-1.81a2.54,2.54,0,0,0-.45-1.41,3.36,3.36,0,0,0-1.21-1.21,28.72,28.72,0,0,0-6.92-.5V102l18-1.71v12.8a25.76,25.76,0,0,1,2.12-7.6c1.55-3.06,3.83-4.77,6.85-5.1.67-.07,1.26-.11,1.76-.15s.89,0,1.16,0q6.45,0,9.77,3.6A12.34,12.34,0,0,1,570.42,112.46Z"/><path class="cls-11" d="M614.76,122.44q0,10.78,2.56,15.63a8.28,8.28,0,0,0,7.77,4.83,14.22,14.22,0,0,0,9.73-3.73q5.11-4.54,5.12-12.32h.8a16.7,16.7,0,0,1-4.81,12.34Q631.12,144,623.09,144a17.58,17.58,0,0,1-12.24-5.12q-6.52-6-6.52-15.75,0-10.53,6.42-17.15,5.61-5.71,12.64-5.72a15.76,15.76,0,0,1,10.83,3.81q6.31,5.63,6.32,18.36Zm17.25-1.2q0-9.73-1.73-14.85c-1.16-3.41-3-5.12-5.61-5.12a7.81,7.81,0,0,0-7.68,4.87q-2.22,4.86-2.23,15.1Z"/><path class="cls-12" d="M668.13,103.38c2.61-1.94,4-3,4.11-3.11v15l-.81-.2a20.8,20.8,0,0,0-5-9.84q-3.92-4.11-8.63-4.11a11.21,11.21,0,0,0-5.92,1.41c-2.07,1.27-3.1,3.37-3.1,6.32a6.22,6.22,0,0,0,3.39,5.61q2.4,1.41,9.6,3.12t10.09,4q4.1,3.21,4.1,10.23c0,4.34-1.47,7.56-4.41,9.63a14.84,14.84,0,0,1-8.83,2.51,23.38,23.38,0,0,1-6.32-.6,16,16,0,0,1-6.12-4.32q-4,4.71-4.21,4.92V126.25h.7a64.35,64.35,0,0,0,2.82,8.63,15.43,15.43,0,0,0,3.22,4.91,10.53,10.53,0,0,0,4.38,2.76,25.79,25.79,0,0,0,6.2.55,8,8,0,0,0,5.14-1.6,6.51,6.51,0,0,0,2.42-5.42,7.59,7.59,0,0,0-3.23-6.72q-2.52-1.71-8.91-3t-9.92-4.21a11.51,11.51,0,0,1-4.23-9.33,12.28,12.28,0,0,1,3.56-8.88,11.65,11.65,0,0,1,8.68-3.66,16.7,16.7,0,0,1,6.82,1.3A36.52,36.52,0,0,0,668.13,103.38Z"/></svg>