<svg id="圖層_1" data-name="圖層 1" xmlns="http://www.w3.org/2000/svg" xmlns:xlink="http://www.w3.org/1999/xlink" viewBox="0 0 272.67 272.67"><defs><style>.cls-1{fill:url(#linear-gradient);}.cls-2{fill:url(#linear-gradient-2);}.cls-3{fill:url(#linear-gradient-3);}.cls-4{fill:url(#linear-gradient-4);}.cls-5{fill:url(#linear-gradient-5);}.cls-6{fill:url(#linear-gradient-6);}.cls-7{fill:url(#linear-gradient-7);}.cls-8{fill:url(#linear-gradient-8);}.cls-9{fill:url(#linear-gradient-9);}.cls-10{fill:url(#linear-gradient-10);}.cls-11{fill:url(#linear-gradient-11);}.cls-12{fill:url(#linear-gradient-12);}</style><linearGradient id="linear-gradient" x1="81.69" y1="83.92" x2="200.22" y2="183.38" gradientUnits="userSpaceOnUse"><stop offset="0" stop-color="#ce9349"/><stop offset="0.09" stop-color="#67421d"/><stop offset="0.29" stop-color="#ce9349"/><stop offset="0.31" stop-color="#cf964e"/><stop offset="0.54" stop-color="#dbb27f"/><stop offset="0.62" stop-color="#d7a86d"/><stop offset="0.8" stop-color="#ce9349"/><stop offset="0.89" stop-color="#8b5e2c"/><stop offset="0.94" stop-color="#67421d"/><stop offset="1" stop-color="#b57f3d"/></linearGradient><linearGradient id="linear-gradient-2" x1="144.82" y1="110.2" x2="87.2" y2="158.55" xlink:href="#linear-gradient"/><linearGradient id="linear-gradient-3" x1="173.01" y1="105.72" x2="122.03" y2="148.49" xlink:href="#linear-gradient"/><linearGradient id="linear-gradient-4" x1="60.29" y1="233.38" x2="211.91" y2="232.23" xlink:href="#linear-gradient"/><linearGradient id="linear-gradient-5" x1="60.3" y1="233.41" x2="211.91" y2="232.26" xlink:href="#linear-gradient"/><linearGradient id="linear-gradient-6" x1="60.32" y1="237.29" x2="211.94" y2="236.14" xlink:href="#linear-gradient"/><linearGradient id="linear-gradient-7" x1="60.35" y1="240.58" x2="211.97" y2="239.43" xlink:href="#linear-gradient"/><linearGradient id="linear-gradient-8" x1="60.3" y1="233.93" x2="211.92" y2="232.78" xlink:href="#linear-gradient"/><linearGradient id="linear-gradient-9" x1="60.33" y1="237.74" x2="211.95" y2="236.59" xlink:href="#linear-gradient"/><linearGradient id="linear-gradient-10" x1="60.33" y1="237.75" x2="211.95" y2="236.6" xlink:href="#linear-gradient"/><linearGradient id="linear-gradient-11" x1="60.33" y1="238.02" x2="211.95" y2="236.87" xlink:href="#linear-gradient"/><linearGradient id="linear-gradient-12" x1="60.33" y1="238.11" x2="211.95" y2="236.96" xlink:href="#linear-gradient"/></defs><path class="cls-1" d="M112.29,209.18a30.67,30.67,0,0,0,5.38-5.78,28.41,28.41,0,0,0,3.63-6.89,14.5,14.5,0,0,0,.6-1.83c.16-.62.36-1.23.49-1.86a25.83,25.83,0,0,0,.49-3.8,24.11,24.11,0,0,0,0-3.8,13.38,13.38,0,0,0-.24-1.89l-.29-1.88,2.11,1c-8.3,5-18.24,8.15-28.46,7.33a38.43,38.43,0,0,1-14.61-4.41,48.7,48.7,0,0,1-12.13-9.2A55.31,55.31,0,0,1,55,149.55a53.33,53.33,0,0,1,2.74-30.49,65.58,65.58,0,0,1,7.21-13.46c1.38-2.12,2.93-4.07,4.43-6.07s3.13-3.85,4.8-5.66c6.57-7.34,13.63-13.93,20.57-20.49a237.62,237.62,0,0,0,19.43-20.13,128.91,128.91,0,0,0,8.36-10.87c.62-.92,1.23-1.86,1.79-2.79s1.14-1.92,1.46-2.61a11.53,11.53,0,0,1,4.29-4.91,11.64,11.64,0,0,1,12.53,0A11.53,11.53,0,0,1,146.89,37c.32.69.91,1.71,1.46,2.61s1.17,1.86,1.79,2.79a126.85,126.85,0,0,0,8.36,10.87,243.88,243.88,0,0,0,19.43,20.13c6.95,6.54,14,13.14,20.58,20.49,1.67,1.79,3.21,3.76,4.79,5.66s3.06,3.94,4.44,6.07A66.52,66.52,0,0,1,215,119.05a53.3,53.3,0,0,1,2.73,30.51,55.13,55.13,0,0,1-14.26,26.66,48.34,48.34,0,0,1-12.13,9.2,38.26,38.26,0,0,1-14.61,4.41c-10.22.82-20.16-2.32-28.47-7.34l2.13-1-.3,1.87a12,12,0,0,0-.23,1.89,24.11,24.11,0,0,0,0,3.8,27.25,27.25,0,0,0,.49,3.8c.13.62.33,1.24.49,1.86a14.5,14.5,0,0,0,.6,1.83A28.41,28.41,0,0,0,155,203.4a30.67,30.67,0,0,0,5.38,5.78,28.51,28.51,0,0,1-6-5.28,29.26,29.26,0,0,1-4.45-6.77,12.65,12.65,0,0,1-.81-1.89c-.23-.64-.49-1.28-.69-1.94a27.64,27.64,0,0,1-.86-4,26.05,26.05,0,0,1-.31-4.14,14.47,14.47,0,0,1,.08-2.08l.16-2.08.15-2,2,1a55,55,0,0,0,13.05,4.56,39.34,39.34,0,0,0,13.45.43c8.77-1.39,16.7-6.41,22.5-13.15a48.78,48.78,0,0,0,7.27-11.16A48,48,0,0,0,210,148.05a43.45,43.45,0,0,0,.62-6.5c0-.54,0-1.08,0-1.63l-.11-1.64-.11-1.63a11,11,0,0,0-.18-1.63l-.52-3.23c-.23-1.06-.54-2.11-.8-3.17a26.78,26.78,0,0,0-1-3.11L207.3,124c-.18-.51-.44-1-.65-1.5-.48-1-.86-2-1.39-3l-1.57-2.92c-1.18-1.89-2.31-3.8-3.67-5.6s-2.74-3.6-4.15-5.38-3-3.46-4.59-5.13C185,93.68,178,87.37,170.94,81a243,243,0,0,1-20.52-20.81,136.94,136.94,0,0,1-9.12-11.77c-.71-1-1.41-2.11-2.08-3.22a38.08,38.08,0,0,1-2-3.64,1,1,0,0,0-.87-.55.94.94,0,0,0-.86.55,39.35,39.35,0,0,1-2,3.64c-.68,1.11-1.38,2.17-2.09,3.22a136.94,136.94,0,0,1-9.12,11.77,245.7,245.7,0,0,1-20.51,20.8c-7,6.42-14.07,12.73-20.35,19.5-1.62,1.66-3.07,3.41-4.59,5.13S73.9,109.1,72.64,111s-2.5,3.72-3.67,5.61l-1.58,2.91c-.52,1-.92,2-1.39,3-.21.5-.47,1-.65,1.51l-.55,1.54a26.18,26.18,0,0,0-1,3.11c-.26,1-.57,2.1-.8,3.17L62.48,135a11,11,0,0,0-.18,1.62l-.1,1.64-.12,1.64c0,.55,0,1.09,0,1.63a43.32,43.32,0,0,0,.62,6.5,48.4,48.4,0,0,0,4.08,12.57,49.12,49.12,0,0,0,7.27,11.16c5.81,6.75,13.74,11.76,22.51,13.15A39.4,39.4,0,0,0,110,184.5a55,55,0,0,0,13-4.56l2-.95.15,2,.16,2.08a14.28,14.28,0,0,1,.08,2.07,26.05,26.05,0,0,1-.31,4.14,27.64,27.64,0,0,1-.86,4c-.2.66-.46,1.3-.69,1.94a13.61,13.61,0,0,1-.81,1.89,29.54,29.54,0,0,1-4.44,6.77A28.76,28.76,0,0,1,112.29,209.18Z"/><path class="cls-2" d="M132.52,166.09a64,64,0,0,1-16.11,3,37.48,37.48,0,0,1-16.33-2.69,27,27,0,0,1-12.67-10.95,31.2,31.2,0,0,1-4.29-16.34,41.14,41.14,0,0,1,3.65-16.52,66.23,66.23,0,0,1,9-14.15,120.48,120.48,0,0,1,11.38-12.08A149.26,149.26,0,0,1,119.9,85.71l1.63-1.21,1.61,1.39c1.48,1.27,2.74,2.51,4,3.83s2.49,2.69,3.65,4.14a38.55,38.55,0,0,1,5.89,9.69,22.72,22.72,0,0,1,1.54,5.84,17.22,17.22,0,0,1-.4,6.37,16.45,16.45,0,0,1-2.87,5.77,20.81,20.81,0,0,1-4.45,4.17,27.81,27.81,0,0,1-5.11,2.87,22.86,22.86,0,0,1-5.72,1.56,21.27,21.27,0,0,1-5.91,0,23.58,23.58,0,0,1-5.55-1.58,27.2,27.2,0,0,1-4.92-2.69A34.76,34.76,0,0,1,99,122.39a39.73,39.73,0,0,1-6.77-8.34l-.15-.27.44-.31.21.22a50.4,50.4,0,0,0,7.89,6.68,31.75,31.75,0,0,0,8.94,4.35,18.65,18.65,0,0,0,9.24.41,17.58,17.58,0,0,0,4.29-1.58A21.41,21.41,0,0,0,127,121a12.57,12.57,0,0,0,4.69-6.83,14.49,14.49,0,0,0-.89-8.38,37.73,37.73,0,0,0-4.65-8.44,54.75,54.75,0,0,0-6.51-7.53l3.24.19a136.2,136.2,0,0,0-12.57,9.84,114.69,114.69,0,0,0-11.29,11.3,61.48,61.48,0,0,0-8.84,13,37.88,37.88,0,0,0-3.81,15,29.08,29.08,0,0,0,3.33,14.94,24.74,24.74,0,0,0,11.19,10.45,35.84,35.84,0,0,0,15.46,3.16,63.76,63.76,0,0,0,16-2.23l.3-.08.16.58Z"/><path class="cls-3" d="M138.29,69.06a334.51,334.51,0,0,0,24.5,29.19c2.18,2.31,4.48,4.41,6.77,6.72s4.46,4.67,6.56,7.14a85,85,0,0,1,11,16.13,38.85,38.85,0,0,1,2,4.66,19.09,19.09,0,0,1,1.11,5.33,61.57,61.57,0,0,1-.54,10,32.2,32.2,0,0,1-3.13,9.91,23.62,23.62,0,0,1-7,8.23,26.15,26.15,0,0,1-9.83,4.31,38.58,38.58,0,0,1-10.29.73,58.89,58.89,0,0,1-9.9-1.41,79.31,79.31,0,0,1-9.46-2.67l-1.84-.63,0-1.77c.11-4.21.27-8.42.43-12.62s.35-8.42.55-12.63l.07-1.6,1.46.08c2.91.15,5.82.36,8.73.53s5.83.43,8.74.69l.31,0V140l-.31,0c-2.91.26-5.82.48-8.74.68s-5.82.39-8.73.54l1.52-1.53c.2,4.21.4,8.42.55,12.63s.32,8.41.43,12.62l-1.8-2.4a85,85,0,0,0,18.18,2.65c5.95.11,11.84-.81,16.39-3.8a17.88,17.88,0,0,0,5.6-5.93,26,26,0,0,0,3-8.11,38.61,38.61,0,0,0,.63-4.46c.07-.75.11-1.51.15-2.29l.1-2.29a14.47,14.47,0,0,0-.7-4,33.66,33.66,0,0,0-1.59-4.2,81.2,81.2,0,0,0-9.9-15.75q-2.9-3.7-6.09-7.2c-2.11-2.29-4.38-4.64-6.46-7.07-4.23-4.84-8.17-9.89-12-15s-7.49-10.34-11-15.66l-.17-.26.49-.34Z"/><path class="cls-4" d="M68.65,234.31v7.29a3.59,3.59,0,0,0,.12,1.2.93.93,0,0,0,.46.27,6.75,6.75,0,0,0,1.51.25c.76.06,1.79.09,3.1.09v.33H59.9v-.33q1.65,0,2.73-.09a6.61,6.61,0,0,0,1.47-.25.93.93,0,0,0,.45-.27,3.5,3.5,0,0,0,.13-1.2V225a3.28,3.28,0,0,0-.13-1.14.88.88,0,0,0-.39-.26,16.21,16.21,0,0,0-4.26-.35v-.29H72.42a9.49,9.49,0,0,1,6.07,1.77,5.35,5.35,0,0,1,2.1,4.39A4.55,4.55,0,0,1,79,232.44a7.64,7.64,0,0,1-5.43,1.87Zm0-.29h3.27c1.79,0,3-.46,3.76-1.39a6.41,6.41,0,0,0,.91-3.82,6.33,6.33,0,0,0-1.2-4.18,4.56,4.56,0,0,0-3.7-1.42H70.14a4.12,4.12,0,0,0-1,.09.54.54,0,0,0-.4.41,5.62,5.62,0,0,0-.08,1.25Z"/><path class="cls-5" d="M87,242.19a2.14,2.14,0,0,0,.1.84.65.65,0,0,0,.29.19,10.8,10.8,0,0,0,2.8.23v.29H80.75v-.29c.62,0,1.19,0,1.69-.07a5.06,5.06,0,0,0,1.31-.26c.13-.11.19-.42.19-.94V224.89a1.6,1.6,0,0,0-.19-.91.85.85,0,0,0-.39-.32,12.2,12.2,0,0,0-2.58-.16v-.29l6.2-.55Z"/><path class="cls-6" d="M99.34,234.36v-1.88a2.66,2.66,0,0,0-.41-1.75,2.46,2.46,0,0,0-1.77-.45,4.31,4.31,0,0,0-2,.42,2.17,2.17,0,0,0-1.1,1.16,1.55,1.55,0,0,1,.33,0,1.23,1.23,0,0,1,1,.48,1.69,1.69,0,0,1,.38,1.1,1.5,1.5,0,0,1-.49,1.16,1.61,1.61,0,0,1-1.14.45,1.3,1.3,0,0,1-.75-.22,1.81,1.81,0,0,1-.94-1.55,3.29,3.29,0,0,1,.19-1A3.23,3.23,0,0,1,95,230.37a8.4,8.4,0,0,1,2.62-.42,6.06,6.06,0,0,1,3.61.9,2.45,2.45,0,0,1,1.1,2V240a15.35,15.35,0,0,0,.1,2.38c.15.73.53,1.1,1.16,1.1a1.12,1.12,0,0,0,1.13-.87,8.4,8.4,0,0,0,.29-2.5c0-.3,0-.6,0-.9s0-.61,0-.93V238h.38v1.42c0,.45,0,.88,0,1.29a4.8,4.8,0,0,1-.46,2.52,2.79,2.79,0,0,1-2.37.81,3.59,3.59,0,0,1-2.07-.48,3,3,0,0,1-1.08-2,3.73,3.73,0,0,1-2,2.11,6.08,6.08,0,0,1-2.16.32,4.26,4.26,0,0,1-2.36-.65,2.93,2.93,0,0,1-1.39-2.65,3.78,3.78,0,0,1,1.35-2.94,5.61,5.61,0,0,1,3.28-1.33,7.81,7.81,0,0,0,2.61-.51C99.12,235.71,99.34,235.18,99.34,234.36Zm-.09,5.84v-4.31a1.71,1.71,0,0,1-1.15.63l-1.47.21a2.42,2.42,0,0,0-1.48,1,4.82,4.82,0,0,0-.65,2.72,5.83,5.83,0,0,0,.37,2.55,1.26,1.26,0,0,0,1.18.66,3,3,0,0,0,2.21-1A3.42,3.42,0,0,0,99.25,240.2Z"/><path class="cls-7" d="M112.29,246.83a11.54,11.54,0,0,1-1.26,2.75,2.1,2.1,0,0,1-1.75.9,5.52,5.52,0,0,1-2-.27,1.38,1.38,0,0,1-.82-.94,4.24,4.24,0,0,1-.18-1.05,1.69,1.69,0,0,1,1.67-1.64A1.51,1.51,0,0,1,109,247a1.71,1.71,0,0,1,.47,1.25,1.37,1.37,0,0,1-1.3,1.55.74.74,0,0,0,.46.28,2.74,2.74,0,0,0,.5,0,1.73,1.73,0,0,0,1.42-.67,8.09,8.09,0,0,0,1.16-2.45l1-2.92-4.67-12.65c-.19-.49-.31-.78-.35-.87s-.51-.32-1.13-.32h-.75V230h7.4v.33h-1.51c-.5,0-.75.15-.75.41l.19.65,3.12,8.32,2.17-6.35a5.84,5.84,0,0,0,.39-1.75q0-1.29-2.16-1.29V230h5.39v.33a2.85,2.85,0,0,0-1.91.59,8.1,8.1,0,0,0-1.51,3Z"/><path class="cls-8" d="M146.08,243.74h-.26a3.57,3.57,0,0,0-.41-1.9,1.23,1.23,0,0,0-1-.63,2.69,2.69,0,0,0-1.84.65c-.24.21-.46.43-.68.65a9,9,0,0,1-2,1.23,6.78,6.78,0,0,1-2.21.29,8.71,8.71,0,0,1-6.13-2.3q-3-2.73-3-7.94a11.29,11.29,0,0,1,3.29-8.32,8.17,8.17,0,0,1,5.77-2.81,7.51,7.51,0,0,1,3.22.58,8.75,8.75,0,0,1,3.07,2.81l1.82-3.39v9.1h-.29a12.89,12.89,0,0,0-2.74-6.62,5.9,5.9,0,0,0-4.55-2.19q-2.49,0-3.92,2.74a16.86,16.86,0,0,0-1.44,7.73,17.52,17.52,0,0,0,1.33,7.64c.89,1.78,2.11,2.68,3.67,2.68a4.71,4.71,0,0,0,3.4-1.17,4.5,4.5,0,0,0,1.22-3.4v-3.92a3.46,3.46,0,0,0-.1-1.1.66.66,0,0,0-.42-.35,5.18,5.18,0,0,0-1.31-.23,16,16,0,0,0-1.69-.1v-.29H150v.29a16.71,16.71,0,0,0-1.77.13c-.71.09-1.19.15-1.44.2s-.4.11-.46.22a2.65,2.65,0,0,0-.2,1.23Z"/><path class="cls-9" d="M158.51,234.36v-1.88a2.72,2.72,0,0,0-.41-1.75,2.49,2.49,0,0,0-1.78-.45,4.31,4.31,0,0,0-1.95.42,2.14,2.14,0,0,0-1.09,1.16,1.39,1.39,0,0,1,.32,0,1.23,1.23,0,0,1,1,.48,1.7,1.7,0,0,1,.39,1.1,1.5,1.5,0,0,1-.49,1.16,1.61,1.61,0,0,1-1.14.45,1.3,1.3,0,0,1-.75-.22,1.81,1.81,0,0,1-.94-1.55,3.29,3.29,0,0,1,.19-1,3.21,3.21,0,0,1,2.26-1.84,8.38,8.38,0,0,1,2.61-.42,6.08,6.08,0,0,1,3.62.9,2.45,2.45,0,0,1,1.1,2V240a17.57,17.57,0,0,0,.09,2.38c.15.73.54,1.1,1.16,1.1a1.14,1.14,0,0,0,1.14-.87,8.4,8.4,0,0,0,.29-2.5c0-.3,0-.6,0-.9s0-.61,0-.93V238h.39v1.42q0,.68,0,1.29a4.82,4.82,0,0,1-.45,2.52,2.79,2.79,0,0,1-2.37.81,3.65,3.65,0,0,1-2.08-.48,3,3,0,0,1-1.07-2,3.73,3.73,0,0,1-2,2.11,6.1,6.1,0,0,1-2.17.32,4.25,4.25,0,0,1-2.35-.65,2.91,2.91,0,0,1-1.39-2.65,3.78,3.78,0,0,1,1.35-2.94,5.58,5.58,0,0,1,3.28-1.33,7.74,7.74,0,0,0,2.6-.51C158.28,235.71,158.51,235.18,158.51,234.36Zm-.1,5.84v-4.31a1.71,1.71,0,0,1-1.14.63l-1.47.21a2.44,2.44,0,0,0-1.49,1,4.91,4.91,0,0,0-.64,2.72A5.83,5.83,0,0,0,154,243a1.26,1.26,0,0,0,1.18.66,3,3,0,0,0,2.21-1A3.45,3.45,0,0,0,158.41,240.2Z"/><path class="cls-10" d="M178.81,233.88a7.57,7.57,0,0,1,.74-2.35,2.86,2.86,0,0,1,2.22-1.54,3.13,3.13,0,0,0,.5,0l.4,0a4.21,4.21,0,0,1,3.18,1.23,3.41,3.41,0,0,1,1,2.46v8.57a2.31,2.31,0,0,0,.09.81.56.56,0,0,0,.31.23,3.75,3.75,0,0,0,.87.16c.42,0,.77.07,1,.07v.29h-7.65v-.29a11.77,11.77,0,0,0,1.2,0,2.54,2.54,0,0,0,.9-.31c.13-.11.2-.41.2-.91V234a8.07,8.07,0,0,0-.27-2.36c-.28-.89-.79-1.33-1.52-1.33a2.22,2.22,0,0,0-1.89,1.07,10.93,10.93,0,0,0-1.3,4.34v6.49a2.32,2.32,0,0,0,.1.84.52.52,0,0,0,.29.18,4.6,4.6,0,0,0,.82.17,9.07,9.07,0,0,0,1.12.08v.29h-7.68v-.29a6.28,6.28,0,0,0,1.9-.23l.23-.1c.13-.11.19-.42.19-.94V234a8.3,8.3,0,0,0-.26-2.36,1.59,1.59,0,0,0-1.55-1.33c-1,0-1.72.61-2.26,1.85a15.42,15.42,0,0,0-.87,3.69v6.36a2.11,2.11,0,0,0,.1.84.64.64,0,0,0,.3.2,4,4,0,0,0,.88.16c.42,0,.76.07,1,.07v.29H165v-.29c.45,0,.91,0,1.37-.07a4.94,4.94,0,0,0,1.24-.26c.13-.11.2-.42.2-.94v-9.8c0-.19,0-.39,0-.58a.84.84,0,0,0-.14-.46,1.27,1.27,0,0,0-.39-.39,9.71,9.71,0,0,0-2.23-.16v-.29l5.81-.55v4.12a8.18,8.18,0,0,1,.68-2.44,2.71,2.71,0,0,1,2.2-1.64c.22,0,.41,0,.57-.05l.37,0a4.08,4.08,0,0,1,3.15,1.16A4,4,0,0,1,178.81,233.88Z"/><path class="cls-11" d="M193.08,237.09a11.4,11.4,0,0,0,.82,5,2.67,2.67,0,0,0,2.5,1.55,4.6,4.6,0,0,0,3.14-1.2,5,5,0,0,0,1.64-4h.26a5.4,5.4,0,0,1-1.55,4,5.59,5.59,0,0,1-4.13,1.55,5.66,5.66,0,0,1-3.94-1.65,6.57,6.57,0,0,1-2.1-5.07,7.59,7.59,0,0,1,2.07-5.52,5.59,5.59,0,0,1,4.06-1.84,5.06,5.06,0,0,1,3.49,1.23c1.36,1.21,2,3.17,2,5.91Zm5.55-.39a15.43,15.43,0,0,0-.56-4.78c-.37-1.09-1-1.64-1.8-1.64a2.51,2.51,0,0,0-2.47,1.56,12.27,12.27,0,0,0-.72,4.86Z"/><path class="cls-12" d="M210.25,231c.84-.62,1.28-.95,1.32-1v4.85l-.25-.07a6.75,6.75,0,0,0-1.62-3.16,3.78,3.78,0,0,0-2.77-1.33,3.56,3.56,0,0,0-1.91.46,2.17,2.17,0,0,0-1,2,2,2,0,0,0,1.09,1.81,13.51,13.51,0,0,0,3.09,1,8.44,8.44,0,0,1,3.25,1.29,3.93,3.93,0,0,1,1.32,3.29,3.55,3.55,0,0,1-1.42,3.1,4.74,4.74,0,0,1-2.84.81,7.45,7.45,0,0,1-2-.2,5.08,5.08,0,0,1-2-1.39L203.15,244v-5.72h.23a21.13,21.13,0,0,0,.9,2.78,5,5,0,0,0,1,1.58,3.52,3.52,0,0,0,1.41.89,8.18,8.18,0,0,0,2,.18,2.63,2.63,0,0,0,1.66-.52,2.12,2.12,0,0,0,.78-1.74,2.47,2.47,0,0,0-1-2.17,8.75,8.75,0,0,0-2.87-1,7.25,7.25,0,0,1-3.19-1.36,3.69,3.69,0,0,1-1.36-3,4,4,0,0,1,1.14-2.86,3.79,3.79,0,0,1,2.8-1.18,5.31,5.31,0,0,1,2.19.42A10.68,10.68,0,0,0,210.25,231Z"/></svg>